<?xml version="1.0" encoding="UTF-8" standalone="no"?>
<svg
   xmlns:dc="http://purl.org/dc/elements/1.1/"
   xmlns:cc="http://creativecommons.org/ns#"
   xmlns:rdf="http://www.w3.org/1999/02/22-rdf-syntax-ns#"
   xmlns:svg="http://www.w3.org/2000/svg"
   xmlns="http://www.w3.org/2000/svg"
   xmlns:sodipodi="http://sodipodi.sourceforge.net/DTD/sodipodi-0.dtd"
   xmlns:inkscape="http://www.inkscape.org/namespaces/inkscape"
   version="1.1"
   id="svg2"
   xml:space="preserve"
   width="647.16699"
   height="750.97699"
   viewBox="0 0 647.16699 750.97701"
   sodipodi:docname="EpicGames.svg"
   inkscape:version="0.92.4 (5da689c313, 2019-01-14)"><sodipodi:namedview
     pagecolor="#ffffff"
     bordercolor="#666666"
     borderopacity="1"
     objecttolerance="10"
     gridtolerance="10"
     guidetolerance="10"
     inkscape:pageopacity="0"
     inkscape:pageshadow="2"
     inkscape:window-width="1920"
     inkscape:window-height="1058"
     id="namedview1022"
     showgrid="false"
     showguides="true"
     inkscape:guide-bbox="true"
     inkscape:zoom="0.88885387"
     inkscape:cx="379.56295"
     inkscape:cy="384.25085"
     inkscape:window-x="1352"
     inkscape:window-y="760"
     inkscape:window-maximized="1"
     inkscape:current-layer="svg2"><sodipodi:guide
       position="-300.38683,-175.50692"
       orientation="0,1"
       id="guide1615"
       inkscape:locked="false" /></sodipodi:namedview><metadata
     id="metadata8"><rdf:RDF><cc:Work
         rdf:about=""><dc:format>image/svg+xml</dc:format><dc:type
           rdf:resource="http://purl.org/dc/dcmitype/StillImage" /><dc:title /></cc:Work></rdf:RDF></metadata><defs
     id="defs6"><clipPath
       clipPathUnits="userSpaceOnUse"
       id="clipPath20"><path
         d="m 0,790.889 900,0 L 900,0 0,0 Z"
         id="path18" /></clipPath></defs><path
     style="fill:#ffffff;fill-opacity:1;fill-rule:evenodd;stroke:none;stroke-width:1.33333325"
     d="M 58.771484 0 C 15.843485 0 3.7895613e-14 15.843017 0 58.791016 L 0 577.02539 C 0 581.88539 0.19566667 586.39937 0.625 590.58203 C 1.6023333 599.9567 1.7871943 609.04014 10.505859 619.38281 C 11.357859 620.39614 20.257813 627.02148 20.257812 627.02148 C 25.045813 629.36948 28.316797 631.09814 33.716797 633.27148 L 294.50977 742.53516 C 308.04844 748.74183 313.71158 751.16147 323.54492 750.9668 L 323.58203 750.9668 L 323.62109 750.9668 C 333.45442 751.16147 339.11625 748.74183 352.65625 742.53516 L 613.44922 633.27148 C 618.85056 631.09814 622.11887 629.36948 626.9082 627.02148 C 626.9082 627.02148 635.80949 620.39614 636.66016 619.38281 C 645.37883 609.04014 645.56173 599.9567 646.53906 590.58203 C 646.96839 586.39937 647.16602 581.88539 647.16602 577.02539 L 647.16602 58.791016 C 647.16602 15.843017 631.32315 -3.7895613e-14 588.39648 0 L 58.771484 0 z M 476.77734 97.328125 L 498.07031 97.328125 C 533.67698 97.328125 550.86914 114.60601 550.86914 150.38867 L 550.86914 209.21484 L 507.89258 209.21484 L 507.89258 152.85547 C 507.89258 141.33814 502.569 135.99414 491.51562 135.99414 L 484.14453 135.99414 C 472.68453 135.99414 467.36133 141.33814 467.36133 152.85547 L 467.36133 334.67188 C 467.36133 346.19053 472.68453 351.53516 484.14453 351.53516 L 492.33789 351.53516 C 503.38456 351.53516 508.70898 346.19054 508.70898 334.67188 L 508.70898 269.67969 L 551.69141 269.67969 L 551.69141 336.72461 C 551.69141 372.51528 534.09256 390.19922 498.47656 390.19922 L 476.77734 390.19922 C 441.16935 390.19922 423.56055 372.51528 423.56055 336.72461 L 423.56055 150.80273 C 423.56055 115.0134 441.16935 97.328125 476.77734 97.328125 z M 95.476562 99.796875 L 192.9043 99.796875 L 192.9043 139.69336 L 139.27344 139.69336 L 139.27344 221.14062 L 190.85156 221.14062 L 190.85156 261.03711 L 139.27344 261.03711 L 139.27344 347.83398 L 193.7207 347.83398 L 193.7207 387.73242 L 95.476562 387.73242 L 95.476562 99.796875 z M 214.86523 99.796875 L 283.63477 99.796875 C 319.24944 99.796875 336.84961 117.48214 336.84961 153.27148 L 336.84961 229.7832 C 336.84961 265.56587 319.24944 283.25 283.63477 283.25 L 258.66602 283.25 L 258.66602 387.73242 L 214.86523 387.73242 L 214.86523 99.796875 z M 356.60742 99.796875 L 400.41406 99.796875 L 400.41406 387.73242 L 356.60742 387.73242 L 356.60742 99.796875 z M 258.66602 138.46289 L 258.66602 244.5918 L 276.67969 244.5918 C 287.73302 244.5918 293.04883 239.23937 293.04883 227.7207 L 293.04883 155.32422 C 293.04883 143.80822 287.73302 138.46289 276.67969 138.46289 L 258.66602 138.46289 z M 138.03711 456.23438 L 139.3457 456.23438 L 140.5332 456.23438 L 141.83984 456.23438 L 143.14844 456.23438 L 144.46484 456.35352 L 145.77344 456.47461 L 146.96094 456.47461 L 148.14844 456.5918 L 149.45703 456.83203 L 150.5332 456.95117 L 151.7207 457.19141 L 152.91016 457.42969 L 153.98438 457.66797 L 155.05273 457.90625 L 156.12305 458.14648 L 157.19922 458.50586 L 158.26758 458.74414 L 159.2168 459.10352 L 160.29297 459.46094 L 161.36133 459.93945 L 162.42969 460.41797 L 163.50586 460.89648 L 164.57617 461.49414 L 165.64258 461.97266 L 166.60156 462.57031 L 167.66797 463.16797 L 168.61719 463.76367 L 169.69336 464.36328 L 170.64258 465.08008 L 171.5918 465.67773 L 172.54883 466.39453 L 173.49805 467.11328 L 174.45312 467.94922 L 175.40234 468.66602 L 174.68555 469.62305 L 173.85742 470.45898 L 173.13867 471.41602 L 172.31055 472.37109 L 171.5918 473.32812 L 170.88281 474.16406 L 170.04492 475.12109 L 169.33594 476.07617 L 168.61719 476.91602 L 167.78711 477.87109 L 167.07227 478.82617 L 166.24023 479.7832 L 165.52344 480.62109 L 164.81445 481.57617 L 163.97852 482.5332 L 163.26562 483.48828 L 162.42969 484.32617 L 161.71875 485.28125 L 160.76367 484.56445 L 159.81445 483.72852 L 158.85742 483.12891 L 157.9082 482.41211 L 156.95898 481.81445 L 156.00391 481.2168 L 155.05273 480.62109 L 153.98438 480.02148 L 153.0293 479.54492 L 152.08008 479.06641 L 151.12305 478.70703 L 150.05469 478.34766 L 148.98633 477.99023 L 147.91016 477.75195 L 146.72266 477.51172 L 145.5332 477.27148 L 144.34375 477.1543 L 143.03711 477.0332 L 141.72266 476.91602 L 140.41406 476.91602 L 139.22656 476.91602 L 138.03711 477.0332 L 136.96289 477.1543 L 135.77344 477.39258 L 134.70508 477.63281 L 133.62891 477.99023 L 132.56055 478.34766 L 131.49219 478.82617 L 130.42188 479.30469 L 129.4668 479.90234 L 128.51758 480.5 L 127.56055 481.09961 L 126.73047 481.81445 L 125.89453 482.5332 L 125.06445 483.25 L 124.34766 484.08594 L 123.51758 484.92383 L 122.80078 485.87891 L 122.20898 486.7168 L 121.61133 487.67188 L 121.02148 488.74805 L 120.42383 489.70508 L 119.94531 490.78125 L 119.58789 491.85742 L 119.11523 492.93164 L 118.75586 494.12695 L 118.51758 495.31641 L 118.2793 496.39062 L 118.03906 497.70703 L 117.91992 498.90234 L 117.80859 500.0957 L 117.80859 501.41211 L 117.80859 501.65039 L 117.80859 502.84766 L 117.91992 504.04102 L 118.03906 505.11719 L 118.16016 506.31445 L 118.39844 507.38867 L 118.63867 508.46484 L 118.87695 509.54102 L 119.23438 510.61719 L 119.58789 511.57227 L 120.06641 512.76758 L 120.54297 513.84375 L 121.13477 514.91992 L 121.73047 515.87695 L 122.32812 516.83203 L 123.03906 517.78906 L 123.75586 518.625 L 124.58594 519.46289 L 125.30469 520.29883 L 126.13281 521.01562 L 127.08984 521.73438 L 128.03906 522.45117 L 128.98828 523.04883 L 129.94336 523.64648 L 131.01367 524.125 L 132.08203 524.60352 L 133.15625 525.08008 L 134.3457 525.43945 L 135.5332 525.79688 L 136.73047 526.03711 L 137.91797 526.27734 L 139.10547 526.39453 L 140.41406 526.51562 L 141.72266 526.51562 L 143.14844 526.51562 L 144.46484 526.39453 L 145.77344 526.27734 L 146.96094 526.15625 L 148.14844 525.91602 L 149.34375 525.67773 L 150.5332 525.32031 L 151.60156 525.08008 L 152.67188 524.60352 L 153.62695 524.125 L 154.69531 523.64648 L 155.53125 523.16797 L 156.48242 522.57031 L 156.48242 521.375 L 156.48242 520.17969 L 156.48242 518.98438 L 156.48242 517.78906 L 156.48242 516.47461 L 156.48242 515.2793 L 156.48242 514.08398 L 156.48242 512.88867 L 156.48242 511.69336 L 155.29297 511.69336 L 154.21875 511.69336 L 153.0293 511.69336 L 151.83984 511.69336 L 150.65234 511.69336 L 149.57617 511.69336 L 148.38672 511.69336 L 147.19922 511.69336 L 146.01172 511.69336 L 144.9375 511.69336 L 143.74805 511.69336 L 142.55859 511.69336 L 141.36914 511.69336 L 140.29492 511.69336 L 139.10547 511.69336 L 139.10547 510.49805 L 139.10547 509.42188 L 139.10547 508.22656 L 139.10547 507.03125 L 139.10547 505.83594 L 139.10547 504.75977 L 139.10547 503.56445 L 139.10547 502.36914 L 139.10547 501.17383 L 139.10547 500.0957 L 139.10547 498.90234 L 139.10547 497.70703 L 139.10547 496.51172 L 139.10547 495.43555 L 139.10547 494.24805 L 140.29492 494.24805 L 141.49023 494.24805 L 142.67969 494.24805 L 143.86523 494.24805 L 145.05469 494.24805 L 146.24414 494.24805 L 147.43945 494.24805 L 148.62695 494.24805 L 149.81445 494.24805 L 151.00391 494.24805 L 152.19922 494.24805 L 153.38672 494.24805 L 154.57617 494.24805 L 155.76367 494.24805 L 156.95898 494.24805 L 158.14844 494.24805 L 159.33594 494.24805 L 160.52539 494.24805 L 161.71875 494.24805 L 162.9082 494.24805 L 164.0957 494.24805 L 165.28516 494.24805 L 166.47852 494.24805 L 167.66797 494.24805 L 168.85742 494.24805 L 170.04492 494.24805 L 171.24023 494.24805 L 172.42773 494.24805 L 173.61719 494.24805 L 174.80664 494.24805 L 176 494.24805 L 177.18945 494.24805 L 178.37891 494.24805 L 178.37891 495.43555 L 178.37891 496.62891 L 178.37891 497.82617 L 178.37891 498.90234 L 178.37891 500.0957 L 178.37891 501.29297 L 178.37891 502.48633 L 178.37891 503.68359 L 178.37891 504.87891 L 178.37891 505.95312 L 178.37891 507.15039 L 178.37891 508.3457 L 178.37891 509.54102 L 178.37891 510.73633 L 178.37891 511.93164 L 178.37891 513.12695 L 178.37891 514.20117 L 178.37891 515.39844 L 178.37891 516.59375 L 178.37891 517.78906 L 178.37891 518.98438 L 178.37891 520.17969 L 178.37891 521.375 L 178.37891 522.45117 L 178.37891 523.64648 L 178.37891 524.8418 L 178.37891 526.03711 L 178.37891 527.23242 L 178.37891 528.42773 L 178.37891 529.50391 L 178.37891 530.69922 L 178.37891 531.89453 L 178.37891 533.08984 L 177.54883 533.80664 L 176.5918 534.52344 L 175.76172 535.12109 L 174.80664 535.83984 L 173.85742 536.43555 L 172.9082 537.1543 L 171.95117 537.75195 L 171.00195 538.34961 L 169.92578 538.94531 L 168.85742 539.54492 L 167.78711 540.14258 L 166.71289 540.61328 L 165.64258 541.21094 L 164.45508 541.6875 L 163.38672 542.16797 L 162.19141 542.64453 L 161.12305 543.12305 L 160.05273 543.48242 L 158.97852 543.83984 L 157.9082 544.20117 L 156.7207 544.55859 L 155.65234 544.91797 L 154.45703 545.15625 L 153.38672 545.39453 L 152.19922 545.63477 L 151.00391 545.87305 L 149.81445 545.99219 L 148.50781 546.11328 L 147.31836 546.23242 L 146.01172 546.35156 L 144.81445 546.4707 L 143.50781 546.58984 L 142.20117 546.58984 L 140.89062 546.58984 L 139.58398 546.58984 L 138.38867 546.58984 L 137.20117 546.4707 L 135.89258 546.35156 L 134.70508 546.23242 L 133.51758 546.11328 L 132.32031 545.99219 L 131.13281 545.75391 L 129.94336 545.51367 L 128.875 545.27539 L 127.67969 545.03711 L 126.61133 544.67773 L 125.42383 544.43945 L 124.34766 544.08008 L 123.27734 543.60156 L 122.20898 543.24219 L 121.02148 542.76367 L 119.94531 542.28711 L 118.87695 541.81055 L 117.80859 541.33203 L 116.73047 540.73438 L 115.7832 540.14258 L 114.71484 539.54492 L 113.75781 538.94531 L 112.80859 538.34961 L 111.85352 537.63086 L 110.90234 536.91602 L 109.95312 536.19727 L 109.11719 535.48047 L 108.28711 534.76367 L 107.44922 533.92578 L 106.62109 533.20898 L 105.7832 532.37305 L 104.95312 531.53516 L 104.23633 530.69922 L 103.52539 529.74219 L 102.80859 528.90625 L 102.21094 527.94922 L 101.5 526.99219 L 100.9043 526.03711 L 100.3125 525.08008 L 99.714844 524.00391 L 99.117188 523.04883 L 98.646484 521.97266 L 98.167969 520.89648 L 97.691406 519.82031 L 97.21875 518.74609 L 96.861328 517.78906 L 96.382812 516.71289 L 96.142578 515.63672 L 95.791016 514.5625 L 95.552734 513.36719 L 95.193359 512.28906 L 94.955078 511.0957 L 94.835938 510.01953 L 94.595703 508.82227 L 94.478516 507.74805 L 94.357422 506.55273 L 94.244141 505.35742 L 94.126953 504.16211 L 94.126953 502.84766 L 94.126953 501.65039 L 94.126953 501.41211 L 94.126953 500.2168 L 94.244141 498.90234 L 94.244141 497.70703 L 94.357422 496.51172 L 94.478516 495.19727 L 94.716797 494.00781 L 94.835938 492.8125 L 95.074219 491.73633 L 95.433594 490.54102 L 95.671875 489.3457 L 96.023438 488.26953 L 96.382812 487.07422 L 96.740234 486 L 97.21875 484.80273 L 97.691406 483.72852 L 98.167969 482.65234 L 98.646484 481.57617 L 99.117188 480.5 L 99.714844 479.42383 L 100.3125 478.46875 L 100.9043 477.51172 L 101.5 476.55469 L 102.09961 475.59961 L 102.80859 474.64258 L 103.52539 473.6875 L 104.23633 472.73047 L 104.95312 471.89258 L 105.7832 471.05664 L 106.5 470.21875 L 107.33203 469.38477 L 108.16797 468.54492 L 108.99609 467.83008 L 109.95312 466.99219 L 110.7832 466.27539 L 111.73242 465.55859 L 112.68945 464.96094 L 113.63867 464.24219 L 114.5957 463.64648 L 115.54297 463.04883 L 116.61328 462.44922 L 117.68945 461.85156 L 118.75586 461.25586 L 119.82617 460.77734 L 120.90039 460.29883 L 122.08984 459.70117 L 123.03906 459.34375 L 124.22656 458.98242 L 125.30469 458.50586 L 126.37305 458.26562 L 127.44141 457.90625 L 128.63477 457.66797 L 129.70508 457.31055 L 130.89258 457.07031 L 132.08203 456.95117 L 133.27734 456.71289 L 134.4668 456.5918 L 135.65234 456.47461 L 136.8418 456.35352 L 138.03711 456.23438 z M 513.17188 456.47461 L 514.36133 456.47461 L 515.67578 456.47461 L 516.98438 456.47461 L 518.29102 456.47461 L 519.59961 456.5918 L 520.9082 456.71289 L 522.0957 456.71289 L 523.41016 456.83203 L 524.59766 457.07031 L 525.90625 457.19141 L 527.0957 457.42969 L 528.17188 457.66797 L 529.35938 457.90625 L 530.54688 458.14648 L 531.61719 458.38672 L 532.81055 458.74414 L 533.88086 459.10352 L 534.94922 459.34375 L 536.14453 459.82031 L 537.21484 460.17969 L 538.28125 460.65625 L 539.35156 461.13477 L 540.54688 461.61328 L 541.61523 462.21094 L 542.56445 462.68945 L 543.64062 463.28711 L 544.71094 463.88477 L 545.66016 464.48242 L 546.73438 465.20117 L 547.68555 465.79688 L 548.64062 466.51562 L 549.58984 467.23242 L 550.53711 467.94922 L 549.82812 468.90625 L 549.23047 469.86133 L 548.52148 470.81836 L 547.80273 471.77539 L 547.09375 472.84961 L 546.49609 473.80664 L 545.77734 474.76367 L 545.06641 475.71875 L 544.4707 476.67578 L 543.75977 477.63281 L 543.04297 478.58789 L 542.44531 479.54492 L 541.73438 480.62109 L 541.01758 481.57617 L 540.30664 482.5332 L 539.71094 483.48828 L 539 484.44531 L 538.04297 483.72852 L 536.97461 483.12891 L 536.02539 482.5332 L 535.06836 481.81445 L 534 481.33789 L 533.04297 480.73828 L 531.97461 480.25977 L 531.02539 479.7832 L 529.94922 479.30469 L 529 478.82617 L 527.93359 478.46875 L 526.97656 477.99023 L 525.66797 477.63281 L 524.47852 477.27148 L 523.29102 476.91602 L 522.0957 476.67578 L 520.9082 476.43555 L 519.71875 476.19727 L 518.53125 476.07617 L 517.33594 475.95703 L 516.26758 475.83789 L 515.07812 475.83789 L 513.65039 475.83789 L 512.34375 476.07617 L 511.14648 476.31641 L 510.08008 476.55469 L 509.13086 477.0332 L 508.29297 477.51172 L 507.22266 478.46875 L 506.50586 479.54492 L 506.03711 480.62109 L 505.91602 481.81445 L 505.91602 482.05469 L 506.03711 483.60938 L 506.62695 484.92383 L 507.10547 485.64062 L 507.93359 486.47852 L 509.00977 487.07422 L 509.95898 487.67188 L 511.14648 488.15039 L 512.46289 488.62891 L 513.89062 489.10742 L 514.83984 489.3457 L 515.78906 489.70508 L 516.86523 489.94336 L 517.93359 490.30273 L 519.12109 490.54102 L 520.4375 490.90039 L 521.74414 491.25781 L 523.05273 491.61719 L 524.35938 491.85742 L 525.54688 492.21484 L 526.85547 492.57422 L 528.05078 492.8125 L 529.24023 493.17188 L 530.42773 493.5293 L 531.49609 493.88867 L 532.69336 494.24805 L 533.76172 494.60547 L 534.83008 494.96484 L 536.14453 495.43555 L 537.33203 496.0332 L 538.52148 496.51172 L 539.71094 497.10938 L 540.78516 497.70703 L 541.85547 498.30469 L 542.80273 498.90234 L 543.75977 499.61914 L 544.71094 500.2168 L 545.66016 501.05469 L 546.61523 501.89062 L 547.44531 502.84766 L 548.28125 503.68359 L 548.99219 504.64062 L 549.70898 505.71484 L 550.29883 506.67188 L 550.89844 507.74805 L 551.375 508.70508 L 551.73438 509.7793 L 552.08594 510.85547 L 552.32422 511.93164 L 552.5625 513.12695 L 552.80273 514.32227 L 552.92188 515.51758 L 553.04102 516.83203 L 553.04102 518.14648 L 553.04102 518.38672 L 553.04102 519.70117 L 552.92188 521.01562 L 552.80273 522.21289 L 552.68359 523.52539 L 552.44336 524.72266 L 552.08594 525.91602 L 551.85352 526.99219 L 551.49414 528.1875 L 551.01758 529.26367 L 550.53711 530.22266 L 550.06641 531.29688 L 549.4707 532.25195 L 548.87305 533.20898 L 548.16211 534.16602 L 547.5625 535.12109 L 546.85352 535.95703 L 546.01758 536.79492 L 545.30664 537.51172 L 544.35156 538.34961 L 543.52148 539.06641 L 542.56445 539.78516 L 541.61523 540.37305 L 540.66602 541.0918 L 539.58984 541.6875 L 538.52148 542.16797 L 537.45312 542.76367 L 536.25586 543.24219 L 535.06836 543.72266 L 533.88086 544.08008 L 532.69336 544.43945 L 531.61719 544.79688 L 530.42773 545.03711 L 529.35938 545.27539 L 528.29102 545.51367 L 527.0957 545.75391 L 525.90625 545.87305 L 524.83789 545.99219 L 523.64258 546.11328 L 522.33594 546.23242 L 521.14648 546.35156 L 519.95703 546.35156 L 518.65039 546.35156 L 517.33594 546.35156 L 516.14648 546.35156 L 514.95703 546.23242 L 513.65039 546.23242 L 512.46289 546.11328 L 511.26758 545.99219 L 509.95898 545.87305 L 508.77148 545.63477 L 507.58398 545.51367 L 506.38672 545.27539 L 505.19727 545.03711 L 504.00977 544.79688 L 502.82227 544.55859 L 501.62695 544.20117 L 500.55859 543.96094 L 499.36914 543.60156 L 498.17969 543.24219 L 497.10547 542.76367 L 495.91797 542.40625 L 494.84961 542.04883 L 493.66016 541.57031 L 492.58398 541.0918 L 491.51562 540.61328 L 490.44531 540.02344 L 489.37109 539.54492 L 488.30273 538.94531 L 487.35352 538.34961 L 486.27734 537.75195 L 485.32812 537.1543 L 484.37109 536.55664 L 483.42188 535.83984 L 482.47266 535.12109 L 481.51758 534.4043 L 480.56641 533.6875 L 479.73047 532.9707 L 478.78125 532.13477 L 479.49805 531.17773 L 480.32812 530.33984 L 481.04492 529.38281 L 481.875 528.42773 L 482.5918 527.5918 L 483.30273 526.63477 L 484.13867 525.67773 L 484.84961 524.8418 L 485.68555 523.88672 L 486.39648 523.04883 L 487.23242 522.0918 L 487.94336 521.13477 L 488.66016 520.29883 L 489.49023 519.34375 L 490.20703 518.38672 L 491.03711 517.54883 L 491.75391 516.59375 L 492.70312 517.31055 L 493.77344 518.0293 L 494.72852 518.74609 L 495.79883 519.46289 L 496.75391 520.06055 L 497.82422 520.77734 L 498.77148 521.375 L 499.84961 521.85156 L 500.79688 522.45117 L 501.86523 522.92969 L 502.94141 523.40625 L 504.00977 523.88672 L 505.08008 524.24414 L 506.15625 524.72266 L 507.34375 525.08008 L 508.5332 525.43945 L 509.60156 525.79688 L 510.79688 526.03711 L 511.98438 526.27734 L 513.17188 526.51562 L 514.48047 526.63477 L 515.67578 526.87305 L 516.86523 526.87305 L 518.17188 526.99219 L 519.36133 526.99219 L 520.78711 526.99219 L 522.0957 526.87305 L 523.29102 526.63477 L 524.35938 526.39453 L 525.42773 526.15625 L 526.38477 525.79688 L 527.21484 525.32031 L 528.17188 524.60352 L 528.88086 523.76562 L 529.35938 522.80859 L 529.71875 521.73438 L 529.83594 520.53711 L 529.83594 520.29883 L 529.71875 518.86523 L 529.24023 517.66797 L 528.64258 516.83203 L 527.8125 516.11523 L 526.85547 515.39844 L 525.90625 514.91992 L 524.83789 514.44141 L 523.64258 513.96289 L 522.21484 513.36719 L 521.38477 513.12695 L 520.4375 512.88867 L 519.36133 512.5293 L 518.29102 512.28906 L 517.10352 511.93164 L 515.9082 511.69336 L 514.60156 511.33398 L 513.41211 511.0957 L 512.10352 510.73633 L 510.91602 510.49805 L 509.71875 510.13867 L 508.5332 509.89844 L 507.34375 509.54102 L 506.26758 509.18359 L 505.08008 508.94336 L 504.00977 508.58398 L 502.94141 508.22656 L 501.86523 507.86719 L 500.55859 507.38867 L 499.36914 506.91016 L 498.17969 506.43164 L 496.98633 505.95312 L 495.91797 505.35742 L 494.72852 504.75977 L 493.77344 504.16211 L 492.70312 503.56445 L 491.75391 502.84766 L 490.79883 502.25 L 489.96875 501.53125 L 489.13281 500.69531 L 488.30273 499.85742 L 487.58398 499.01953 L 486.875 498.18359 L 486.27734 497.34766 L 485.68555 496.39062 L 485.08789 495.31641 L 484.60938 494.48633 L 484.25195 493.5293 L 483.90039 492.45312 L 483.54102 491.49805 L 483.30273 490.30273 L 483.0625 489.22656 L 482.94336 488.03125 L 482.82422 486.83594 L 482.70508 485.52148 L 482.70508 484.20508 L 482.70508 483.9668 L 482.70508 482.77148 L 482.82422 481.57617 L 482.94336 480.5 L 483.0625 479.30469 L 483.30273 478.23047 L 483.54102 477.1543 L 483.90039 476.07617 L 484.13867 475.00195 L 484.60938 473.92578 L 485.08789 472.84961 L 485.56641 471.77539 L 486.1582 470.69727 L 486.75391 469.62305 L 487.46484 468.66602 L 488.18359 467.70898 L 489.01172 466.75391 L 489.84961 465.91797 L 490.67969 464.96094 L 491.63477 464.12305 L 492.46484 463.52539 L 493.41992 462.80859 L 494.37109 462.0918 L 495.31836 461.49414 L 496.39453 460.89648 L 497.46484 460.41797 L 498.5332 459.82031 L 499.60938 459.34375 L 500.79688 458.98242 L 501.98438 458.50586 L 503.06055 458.14648 L 504.00977 457.90625 L 505.08008 457.66797 L 506.15625 457.42969 L 507.34375 457.19141 L 508.41211 456.95117 L 509.60156 456.83203 L 510.79688 456.71289 L 511.98438 456.5918 L 513.17188 456.47461 z M 224.08398 457.31055 L 225.27148 457.31055 L 226.34766 457.31055 L 227.53516 457.31055 L 228.72266 457.31055 L 229.91992 457.31055 L 230.98828 457.31055 L 232.17578 457.31055 L 233.36523 457.31055 L 234.56055 457.31055 L 235.63086 457.31055 L 236.81641 457.31055 L 238.00586 457.31055 L 239.20117 457.31055 L 240.26953 457.31055 L 241.45703 457.31055 L 242.64648 457.31055 L 243.8418 457.31055 L 244.91016 457.31055 L 246.09961 457.31055 L 246.57617 458.38672 L 247.05469 459.46094 L 247.52734 460.53711 L 248.00391 461.73438 L 248.36328 462.80859 L 248.83398 463.88477 L 249.3125 464.96094 L 249.78906 466.03711 L 250.26953 467.11328 L 250.74023 468.30664 L 251.21875 469.38477 L 251.69727 470.45898 L 252.04688 471.53516 L 252.52539 472.61133 L 253.00391 473.6875 L 253.48242 474.88086 L 253.95312 475.95703 L 254.43164 477.0332 L 254.91016 478.10938 L 255.38086 479.18555 L 255.74023 480.25977 L 256.2168 481.45703 L 256.68945 482.5332 L 257.16797 483.60938 L 257.64453 484.68359 L 258.12305 485.75977 L 258.59375 486.83594 L 259.07227 488.03125 L 259.43164 489.10742 L 259.90234 490.18164 L 260.37891 491.25781 L 260.85742 492.33594 L 261.33594 493.41016 L 261.80664 494.60547 L 262.28516 495.67383 L 262.76367 496.75195 L 263.11523 497.82617 L 263.5918 498.90234 L 264.07227 499.97852 L 264.54297 501.05469 L 265.02148 502.25 L 265.5 503.32617 L 265.97852 504.40039 L 266.44922 505.47656 L 266.80664 506.55273 L 267.28516 507.62891 L 267.75586 508.82227 L 268.23438 509.89844 L 268.71289 510.97461 L 269.18945 512.05078 L 269.66211 513.12695 L 270.14062 514.20117 L 270.49805 515.39844 L 270.9707 516.47461 L 271.44727 517.54883 L 271.92578 518.625 L 272.39648 519.70117 L 272.875 520.77734 L 273.35352 521.97266 L 273.83203 523.04883 L 274.18359 524.125 L 274.66211 525.19922 L 275.14062 526.27734 L 275.61133 527.35156 L 276.08789 528.54688 L 276.56641 529.62305 L 277.04492 530.69922 L 277.51562 531.77539 L 277.875 532.84961 L 278.35352 533.92578 L 278.82422 535.12109 L 279.30273 536.19727 L 279.7793 537.27344 L 280.25195 538.34961 L 280.72852 539.42383 L 281.20703 540.49414 L 281.56641 541.6875 L 282.03711 542.76367 L 282.51562 543.83984 L 282.99219 544.91797 L 281.80664 544.91797 L 280.61133 544.91797 L 279.54102 544.91797 L 278.35352 544.91797 L 277.1582 544.91797 L 275.9707 544.91797 L 274.78125 544.91797 L 273.71289 544.91797 L 272.51758 544.91797 L 271.32812 544.91797 L 270.14062 544.91797 L 268.95117 544.91797 L 267.75586 544.91797 L 266.6875 544.91797 L 265.5 544.91797 L 264.31055 544.91797 L 263.11523 544.91797 L 261.92773 544.91797 L 260.85742 544.91797 L 259.66992 544.91797 L 258.47461 544.91797 L 258.00391 543.83984 L 257.64453 542.76367 L 257.16797 541.6875 L 256.68945 540.49414 L 256.33594 539.42383 L 255.85938 538.34961 L 255.38086 537.27344 L 255.0293 536.19727 L 254.55078 535.12109 L 254.07227 534.04492 L 253.71484 532.9707 L 253.24414 531.77539 L 252.76562 530.69922 L 252.40625 529.62305 L 251.92773 528.54688 L 250.74023 528.54688 L 249.55078 528.54688 L 248.36328 528.54688 L 247.17578 528.54688 L 246.09961 528.54688 L 244.91016 528.54688 L 243.72266 528.54688 L 242.52734 528.54688 L 241.33984 528.54688 L 240.15039 528.54688 L 238.96289 528.54688 L 237.77344 528.54688 L 236.57812 528.54688 L 235.39062 528.54688 L 234.32227 528.54688 L 233.12695 528.54688 L 231.9375 528.54688 L 230.74805 528.54688 L 229.56055 528.54688 L 228.36523 528.54688 L 227.17578 528.54688 L 225.98828 528.54688 L 224.80078 528.54688 L 223.61328 528.54688 L 222.53516 528.54688 L 221.34961 528.54688 L 220.16016 528.54688 L 218.96289 528.54688 L 217.77539 528.54688 L 217.30469 529.62305 L 216.94531 530.69922 L 216.4668 531.77539 L 215.99023 532.9707 L 215.63867 534.04492 L 215.16016 535.12109 L 214.68164 536.19727 L 214.32422 537.27344 L 213.85352 538.34961 L 213.37305 539.42383 L 213.01562 540.49414 L 212.54297 541.6875 L 212.06641 542.76367 L 211.70703 543.83984 L 211.22852 544.91797 L 210.04102 544.91797 L 208.85352 544.91797 L 207.66406 544.91797 L 206.46875 544.91797 L 205.28125 544.91797 L 203.97266 544.91797 L 202.78516 544.91797 L 201.5957 544.91797 L 200.40039 544.91797 L 199.21289 544.91797 L 198.02539 544.91797 L 196.83594 544.91797 L 195.63867 544.91797 L 194.45312 544.91797 L 193.26562 544.91797 L 191.95703 544.91797 L 190.75977 544.91797 L 189.57227 544.91797 L 188.38281 544.91797 L 187.19531 544.91797 L 187.66602 543.83984 L 188.14453 542.76367 L 188.62109 541.6875 L 189.09375 540.49414 L 189.45312 539.42383 L 189.93164 538.34961 L 190.4082 537.27344 L 190.87891 536.19727 L 191.35742 535.12109 L 191.83594 533.92578 L 192.30664 532.84961 L 192.78516 531.77539 L 193.14258 530.69922 L 193.62109 529.62305 L 194.0918 528.54688 L 194.57227 527.35156 L 195.04883 526.27734 L 195.52148 525.19922 L 196 524.125 L 196.47656 523.04883 L 196.83594 521.97266 L 197.30664 520.77734 L 197.78516 519.70117 L 198.26367 518.625 L 198.73438 517.54883 L 199.21289 516.47461 L 199.69141 515.39844 L 200.16211 514.20117 L 200.52148 513.12695 L 201 512.05078 L 201.47656 510.97461 L 201.94922 509.89844 L 202.42578 508.82227 L 202.90234 507.62891 L 203.375 506.55273 L 203.85352 505.47656 L 204.21094 504.40039 L 204.68945 503.32617 L 205.16016 502.25 L 205.63867 501.05469 L 206.11719 499.97852 L 206.58789 498.90234 L 207.06641 497.82617 L 207.54492 496.75195 L 207.90234 495.67383 L 208.375 494.60547 L 208.85352 493.41016 L 209.33008 492.33594 L 209.80273 491.25781 L 210.2793 490.18164 L 210.75781 489.10742 L 211.22852 488.03125 L 211.58789 486.83594 L 212.06641 485.75977 L 212.54297 484.68359 L 213.01562 483.60938 L 213.49414 482.5332 L 213.9707 481.45703 L 214.44336 480.25977 L 214.91992 479.18555 L 215.2793 478.10938 L 215.75586 477.0332 L 216.22852 475.95703 L 216.70508 474.88086 L 217.18555 473.6875 L 217.65625 472.61133 L 218.13477 471.53516 L 218.61328 470.45898 L 218.96289 469.38477 L 219.44141 468.30664 L 219.91992 467.11328 L 220.39844 466.03711 L 220.86914 464.96094 L 221.34961 463.88477 L 221.82617 462.80859 L 222.29688 461.73438 L 222.65625 460.53711 L 223.13477 459.46094 L 223.61328 458.38672 L 224.08398 457.31055 z M 292.66211 457.90625 L 293.84961 457.90625 L 295.04492 457.90625 L 296.11523 457.90625 L 297.30273 457.90625 L 298.49219 457.90625 L 299.68555 457.90625 L 300.75586 457.90625 L 301.94336 457.90625 L 303.13867 457.90625 L 304.32812 457.90625 L 305.39648 457.90625 L 306.58398 457.90625 L 307.78125 457.90625 L 308.96875 457.90625 L 310.03711 457.90625 L 311.22461 457.90625 L 312.41992 457.90625 L 313.60938 457.90625 L 314.67773 457.90625 L 315.86523 457.90625 L 317.0625 457.90625 L 317.65234 458.86523 L 318.25 459.93945 L 318.95898 460.88867 L 319.55859 461.96484 L 320.15625 462.91992 L 320.74609 463.99805 L 321.34375 464.94531 L 322.05469 466.02344 L 322.65039 466.97852 L 323.25 467.93555 L 323.83984 469.00391 L 324.4375 469.96094 L 325.14844 471.03516 L 325.74609 471.99219 L 326.34375 473.06055 L 326.93359 474.01562 L 327.65039 474.97266 L 328.25 476.04297 L 328.83984 476.99805 L 329.4375 478.07422 L 330.0293 479.03125 L 330.74609 480.09961 L 331.34375 481.05664 L 331.93359 482.13086 L 332.53125 483.08008 L 333.12109 484.03711 L 333.83984 485.11328 L 334.4375 486.07031 L 335.02734 487.14648 L 335.625 488.0957 L 336.21484 489.17188 L 336.93359 490.12695 L 337.53125 491.19531 L 338.12109 492.15234 L 338.71875 491.19531 L 339.31641 490.12695 L 340.02734 489.17188 L 340.62305 488.0957 L 341.21484 487.14648 L 341.8125 486.07031 L 342.52344 485.11328 L 343.12109 484.03711 L 343.71875 483.08008 L 344.30859 482.13086 L 345.02539 481.05664 L 345.61719 480.09961 L 346.21484 479.03125 L 346.81055 478.07422 L 347.52148 476.99805 L 348.11914 476.04297 L 348.71875 474.97266 L 349.30664 474.01562 L 349.9082 473.06055 L 350.61719 471.99219 L 351.21484 471.03516 L 351.81055 469.96094 L 352.40234 469.00391 L 353.11914 467.93555 L 353.71094 466.97852 L 354.30664 466.02344 L 354.90625 464.94531 L 355.61523 463.99805 L 356.21484 462.91992 L 356.80273 461.96484 L 357.40234 460.88867 L 358.11914 459.93945 L 358.71094 458.86523 L 359.30664 457.90625 L 360.49609 457.90625 L 361.68555 457.90625 L 362.75977 457.90625 L 363.94922 457.90625 L 365.13672 457.90625 L 366.32422 457.90625 L 367.40039 457.90625 L 368.58984 457.90625 L 369.77734 457.90625 L 370.9668 457.90625 L 372.04102 457.90625 L 373.23047 457.90625 L 374.41797 457.90625 L 375.60742 457.90625 L 376.68164 457.90625 L 377.87109 457.90625 L 379.05859 457.90625 L 380.24805 457.90625 L 381.32422 457.90625 L 382.51172 457.90625 L 383.69922 457.90625 L 383.69922 459.10352 L 383.69922 460.29883 L 383.69922 461.49414 L 383.69922 462.68945 L 383.69922 463.88477 L 383.69922 465.08008 L 383.69922 466.27539 L 383.69922 467.4707 L 383.69922 468.66602 L 383.69922 469.86133 L 383.69922 471.05664 L 383.69922 472.25195 L 383.69922 473.44727 L 383.69922 474.64258 L 383.69922 475.83789 L 383.69922 477.0332 L 383.69922 478.23047 L 383.69922 479.42383 L 383.69922 480.5 L 383.69922 481.69531 L 383.69922 482.89062 L 383.69922 484.08594 L 383.69922 485.28125 L 383.69922 486.47852 L 383.69922 487.67188 L 383.69922 488.86914 L 383.69922 490.0625 L 383.69922 491.25781 L 383.69922 492.45312 L 383.69922 493.65039 L 383.69922 494.84375 L 383.69922 496.0332 L 383.69922 497.22852 L 383.69922 498.42383 L 383.69922 499.61914 L 383.69922 500.81445 L 383.69922 502.00977 L 383.69922 503.20508 L 383.69922 504.40039 L 383.69922 505.5957 L 383.69922 506.79102 L 383.69922 507.98633 L 383.69922 509.18359 L 383.69922 510.37695 L 383.69922 511.57227 L 383.69922 512.76758 L 383.69922 513.96289 L 383.69922 515.1582 L 383.69922 516.35352 L 383.69922 517.54883 L 383.69922 518.74609 L 383.69922 519.94141 L 383.69922 521.13477 L 383.69922 522.33203 L 383.69922 523.40625 L 383.69922 524.60352 L 383.69922 525.79688 L 383.69922 526.99219 L 383.69922 528.1875 L 383.69922 529.38281 L 383.69922 530.58008 L 383.69922 531.77539 L 383.69922 532.9707 L 383.69922 534.16602 L 383.69922 535.36133 L 383.69922 536.55664 L 383.69922 537.75195 L 383.69922 538.94531 L 383.69922 540.14258 L 383.69922 541.33203 L 383.69922 542.52539 L 383.69922 543.72266 L 383.69922 544.91797 L 382.51172 544.91797 L 381.32422 544.91797 L 380.13477 544.91797 L 378.82031 544.91797 L 377.63281 544.91797 L 376.44336 544.91797 L 375.25586 544.91797 L 374.05859 544.91797 L 372.87109 544.91797 L 371.5625 544.91797 L 370.375 544.91797 L 369.18555 544.91797 L 367.99219 544.91797 L 366.80273 544.91797 L 365.61523 544.91797 L 364.30664 544.91797 L 363.11133 544.91797 L 361.92383 544.91797 L 360.73438 544.91797 L 360.73438 543.72266 L 360.73438 542.52539 L 360.73438 541.33203 L 360.73438 540.13477 L 360.73438 538.93164 L 360.73438 537.73828 L 360.73438 536.54102 L 360.73438 535.3457 L 360.73438 534.15039 L 360.73438 532.95703 L 360.73438 531.75977 L 360.73438 530.55859 L 360.73438 529.36328 L 360.73438 528.16797 L 360.73438 526.97266 L 360.73438 525.77734 L 360.73438 524.57422 L 360.73438 523.37695 L 360.73438 522.18359 L 360.73438 520.98828 L 360.73438 519.79297 L 360.73438 518.59766 L 360.73438 517.39453 L 360.73438 516.20117 L 360.73438 515.00391 L 360.73438 513.80859 L 360.73438 512.61328 L 360.73438 511.41797 L 360.73438 510.21484 L 360.73438 509.01953 L 360.73438 507.82422 L 360.73438 506.62891 L 360.73438 505.43555 L 360.73438 504.23828 L 360.73438 503.03711 L 360.73438 501.8418 L 360.73438 500.64648 L 360.73438 499.45117 L 360.73438 498.25586 L 360.73438 497.05273 L 360.73438 495.85742 L 360.73438 494.66211 L 360.73438 493.46484 L 360.13867 494.42188 L 359.42773 495.50586 L 358.82812 496.46094 L 358.11914 497.41992 L 357.52148 498.49414 L 356.80273 499.45117 L 356.21484 500.40625 L 355.61523 501.49023 L 354.90625 502.44531 L 354.30664 503.40234 L 353.5918 504.35938 L 353 505.44141 L 352.2832 506.39844 L 351.69336 507.35352 L 351.09375 508.42969 L 350.37695 509.39258 L 349.78516 510.34961 L 349.06836 511.42383 L 348.47852 512.38086 L 347.76172 513.33789 L 347.17188 514.41992 L 346.57227 515.37695 L 345.85742 516.33398 L 345.26562 517.41016 L 344.54883 518.37305 L 343.95703 519.32812 L 343.24023 520.28516 L 342.64258 521.36133 L 342.05078 522.32227 L 341.33594 523.28125 L 340.74414 524.35742 L 340.02734 525.3125 L 339.42969 526.26758 L 338.71875 527.35156 L 338.12109 528.30859 L 337.65039 528.30859 L 336.93359 527.23242 L 336.33594 526.26758 L 335.625 525.19336 L 335.02734 524.23633 L 334.31641 523.16211 L 333.71875 522.19727 L 333.00977 521.12109 L 332.41211 520.16406 L 331.69336 519.08984 L 331.10352 518.13477 L 330.38672 517.04883 L 329.79688 516.09375 L 329.08008 515.01758 L 328.48047 514.0625 L 327.77148 512.97852 L 327.17188 512.02344 L 326.46289 510.94727 L 325.74609 509.99023 L 325.14844 508.9082 L 324.4375 507.95312 L 323.83984 506.87695 L 323.13086 505.91992 L 322.5332 504.83594 L 321.82227 503.88086 L 321.22461 502.80469 L 320.50781 501.84766 L 319.91602 500.77148 L 319.19922 499.80859 L 318.60938 498.73438 L 317.89062 497.77734 L 317.29492 496.70117 L 316.58398 495.74609 L 315.98438 494.66211 L 315.27539 493.70508 L 315.27539 494.90039 L 315.27539 496.0957 L 315.27539 497.29297 L 315.27539 498.49414 L 315.27539 499.68945 L 315.27539 500.88477 L 315.27539 502.08008 L 315.27539 503.27734 L 315.27539 504.47852 L 315.27539 505.67383 L 315.27539 506.75 L 315.27539 507.94531 L 315.27539 509.14062 L 315.27539 510.33594 L 315.27539 511.53711 L 315.27539 512.73438 L 315.27539 513.92773 L 315.27539 515.12305 L 315.27539 516.31836 L 315.27539 517.51562 L 315.27539 518.7168 L 315.27539 519.91211 L 315.27539 521.10938 L 315.27539 522.30273 L 315.27539 523.5 L 315.27539 524.69336 L 315.27539 525.89648 L 315.27539 527.0918 L 315.27539 528.28711 L 315.27539 529.48242 L 315.27539 530.67773 L 315.27539 531.87891 L 315.27539 532.95703 L 315.27539 534.15039 L 315.27539 535.3457 L 315.27539 536.54102 L 315.27539 537.73828 L 315.27539 538.93164 L 315.27539 540.13477 L 315.27539 541.33203 L 315.27539 542.52539 L 315.27539 543.72266 L 315.27539 544.91797 L 314.08789 544.91797 L 312.89258 544.91797 L 311.70312 544.91797 L 310.51562 544.91797 L 309.32812 544.91797 L 308.13281 544.91797 L 306.94336 544.91797 L 305.75586 544.91797 L 304.56641 544.91797 L 303.37109 544.91797 L 302.18359 544.91797 L 300.99414 544.91797 L 299.80664 544.91797 L 298.61133 544.91797 L 297.42383 544.91797 L 296.23438 544.91797 L 295.04492 544.91797 L 293.84961 544.91797 L 292.66211 544.91797 L 292.66211 543.72266 L 292.66211 542.52539 L 292.66211 541.33203 L 292.66211 540.14258 L 292.66211 538.94531 L 292.66211 537.75195 L 292.66211 536.55664 L 292.66211 535.36133 L 292.66211 534.16602 L 292.66211 532.9707 L 292.66211 531.77539 L 292.66211 530.58008 L 292.66211 529.38281 L 292.66211 528.1875 L 292.66211 526.99219 L 292.66211 525.79688 L 292.66211 524.60352 L 292.66211 523.40625 L 292.66211 522.33203 L 292.66211 521.13477 L 292.66211 519.94141 L 292.66211 518.74609 L 292.66211 517.54883 L 292.66211 516.35352 L 292.66211 515.1582 L 292.66211 513.96289 L 292.66211 512.76758 L 292.66211 511.57227 L 292.66211 510.37695 L 292.66211 509.18359 L 292.66211 507.98633 L 292.66211 506.79102 L 292.66211 505.5957 L 292.66211 504.40039 L 292.66211 503.20508 L 292.66211 502.00977 L 292.66211 500.81445 L 292.66211 499.61914 L 292.66211 498.42383 L 292.66211 497.22852 L 292.66211 496.0332 L 292.66211 494.84375 L 292.66211 493.65039 L 292.66211 492.45312 L 292.66211 491.25781 L 292.66211 490.0625 L 292.66211 488.86914 L 292.66211 487.67188 L 292.66211 486.47852 L 292.66211 485.28125 L 292.66211 484.08594 L 292.66211 482.89062 L 292.66211 481.69531 L 292.66211 480.5 L 292.66211 479.42383 L 292.66211 478.23047 L 292.66211 477.0332 L 292.66211 475.83789 L 292.66211 474.64258 L 292.66211 473.44727 L 292.66211 472.25195 L 292.66211 471.05664 L 292.66211 469.86133 L 292.66211 468.66602 L 292.66211 467.4707 L 292.66211 466.27539 L 292.66211 465.08008 L 292.66211 463.88477 L 292.66211 462.68945 L 292.66211 461.49414 L 292.66211 460.29883 L 292.66211 459.10352 L 292.66211 457.90625 z M 401.27344 457.90625 L 402.46094 457.90625 L 403.65039 457.90625 L 404.84375 457.90625 L 406.03125 457.90625 L 407.2207 457.90625 L 408.4082 457.90625 L 409.60547 457.90625 L 410.79297 457.90625 L 411.98047 457.90625 L 413.16992 457.90625 L 414.36523 457.90625 L 415.55469 457.90625 L 416.74023 457.90625 L 417.92969 457.90625 L 419.00391 457.90625 L 420.19336 457.90625 L 421.38281 457.90625 L 422.57227 457.90625 L 423.76562 457.90625 L 424.95312 457.90625 L 426.14258 457.90625 L 427.33203 457.90625 L 428.52539 457.90625 L 429.71484 457.90625 L 430.90234 457.90625 L 432.0918 457.90625 L 433.28711 457.90625 L 434.47461 457.90625 L 435.66406 457.90625 L 436.85156 457.90625 L 438.04688 457.90625 L 439.23633 457.90625 L 440.42383 457.90625 L 441.61133 457.90625 L 442.80078 457.90625 L 443.99609 457.90625 L 445.18555 457.90625 L 446.37305 457.90625 L 447.56055 457.90625 L 448.75586 457.90625 L 449.94531 457.90625 L 451.13281 457.90625 L 452.32031 457.90625 L 453.39844 457.90625 L 454.58594 457.90625 L 455.77344 457.90625 L 456.96289 457.90625 L 458.1582 457.90625 L 459.3457 457.90625 L 460.5332 457.90625 L 461.72266 457.90625 L 462.91797 457.90625 L 464.10547 457.90625 L 465.29492 457.90625 L 466.48242 457.90625 L 467.67773 457.90625 L 468.86719 457.90625 L 470.05469 457.90625 L 470.05469 459.10352 L 470.05469 460.17969 L 470.05469 461.37305 L 470.05469 462.57031 L 470.05469 463.76367 L 470.05469 464.83984 L 470.05469 466.03711 L 470.05469 467.23242 L 470.05469 468.30664 L 470.05469 469.50391 L 470.05469 470.69727 L 470.05469 471.77539 L 470.05469 472.9707 L 470.05469 474.16406 L 470.05469 475.36133 L 470.05469 476.43555 L 470.05469 477.63281 L 468.86719 477.63281 L 467.67773 477.63281 L 466.48242 477.63281 L 465.29492 477.63281 L 464.10547 477.63281 L 462.91797 477.63281 L 461.8418 477.63281 L 460.6543 477.63281 L 459.4668 477.63281 L 458.27734 477.63281 L 457.08203 477.63281 L 455.89453 477.63281 L 454.70508 477.63281 L 453.51758 477.63281 L 452.32031 477.63281 L 451.13281 477.63281 L 449.94531 477.63281 L 448.75586 477.63281 L 447.56055 477.63281 L 446.49219 477.63281 L 445.30273 477.63281 L 444.11523 477.63281 L 442.91992 477.63281 L 441.73242 477.63281 L 440.54297 477.63281 L 439.35547 477.63281 L 438.16016 477.63281 L 436.9707 477.63281 L 435.7832 477.63281 L 434.5957 477.63281 L 433.39844 477.63281 L 432.21094 477.63281 L 431.14258 477.63281 L 429.95312 477.63281 L 428.75977 477.63281 L 427.57031 477.63281 L 426.38281 477.63281 L 425.19336 477.63281 L 423.99805 477.63281 L 423.99805 478.82617 L 423.99805 480.02148 L 423.99805 481.2168 L 423.99805 482.41211 L 423.99805 483.60938 L 423.99805 484.68359 L 423.99805 485.87891 L 423.99805 487.07422 L 423.99805 488.26953 L 423.99805 489.46484 L 423.99805 490.66016 L 423.99805 491.85742 L 425.19336 491.85742 L 426.38281 491.85742 L 427.57031 491.85742 L 428.75977 491.85742 L 429.95312 491.85742 L 431.14258 491.85742 L 432.33008 491.85742 L 433.51953 491.85742 L 434.5957 491.85742 L 435.7832 491.85742 L 436.9707 491.85742 L 438.16016 491.85742 L 439.35547 491.85742 L 440.54297 491.85742 L 441.73242 491.85742 L 442.91992 491.85742 L 444.11523 491.85742 L 445.30273 491.85742 L 446.49219 491.85742 L 447.67969 491.85742 L 448.875 491.85742 L 450.0625 491.85742 L 451.25195 491.85742 L 452.44141 491.85742 L 453.63672 491.85742 L 454.82422 491.85742 L 455.89453 491.85742 L 457.08203 491.85742 L 458.27734 491.85742 L 459.4668 491.85742 L 460.6543 491.85742 L 461.8418 491.85742 L 463.03711 491.85742 L 464.22656 491.85742 L 465.41406 491.85742 L 465.41406 493.05078 L 465.41406 494.12695 L 465.41406 495.31641 L 465.41406 496.51172 L 465.41406 497.58789 L 465.41406 498.78125 L 465.41406 499.97852 L 465.41406 501.05469 L 465.41406 502.25 L 465.41406 503.44531 L 465.41406 504.64062 L 465.41406 505.71484 L 465.41406 506.91016 L 465.41406 508.10547 L 465.41406 509.18359 L 465.41406 510.37695 L 464.22656 510.37695 L 463.03711 510.37695 L 461.8418 510.37695 L 460.6543 510.37695 L 459.4668 510.37695 L 458.27734 510.37695 L 457.08203 510.37695 L 455.89453 510.37695 L 454.82422 510.37695 L 453.63672 510.37695 L 452.44141 510.37695 L 451.25195 510.37695 L 450.0625 510.37695 L 448.875 510.37695 L 447.67969 510.37695 L 446.49219 510.37695 L 445.30273 510.37695 L 444.11523 510.37695 L 442.91992 510.37695 L 441.73242 510.37695 L 440.54297 510.37695 L 439.35547 510.37695 L 438.16016 510.37695 L 436.9707 510.37695 L 435.7832 510.37695 L 434.5957 510.37695 L 433.51953 510.37695 L 432.33008 510.37695 L 431.14258 510.37695 L 429.95312 510.37695 L 428.75977 510.37695 L 427.57031 510.37695 L 426.38281 510.37695 L 425.19336 510.37695 L 423.99805 510.37695 L 423.99805 511.57227 L 423.99805 512.88867 L 423.99805 514.08398 L 423.99805 515.2793 L 423.99805 516.59375 L 423.99805 517.78906 L 423.99805 518.98438 L 423.99805 520.29883 L 423.99805 521.49414 L 423.99805 522.68945 L 423.99805 524.00391 L 423.99805 525.19922 L 425.19336 525.19922 L 426.38281 525.19922 L 427.57031 525.19922 L 428.75977 525.19922 L 429.95312 525.19922 L 431.14258 525.19922 L 432.33008 525.19922 L 433.51953 525.19922 L 434.71484 525.19922 L 436.02148 525.19922 L 437.21094 525.19922 L 438.39844 525.19922 L 439.59375 525.19922 L 440.7832 525.19922 L 441.9707 525.19922 L 443.16016 525.19922 L 444.35352 525.19922 L 445.54297 525.19922 L 446.73047 525.19922 L 447.91992 525.19922 L 449.10742 525.19922 L 450.30273 525.19922 L 451.49219 525.19922 L 452.67969 525.19922 L 453.86719 525.19922 L 455.06445 525.19922 L 456.25195 525.19922 L 457.44141 525.19922 L 458.62891 525.19922 L 459.94336 525.19922 L 461.13281 525.19922 L 462.31836 525.19922 L 463.50781 525.19922 L 464.70508 525.19922 L 465.89258 525.19922 L 467.08008 525.19922 L 468.26953 525.19922 L 469.46289 525.19922 L 470.65234 525.19922 L 470.65234 526.39453 L 470.65234 527.4707 L 470.65234 528.66797 L 470.65234 529.86133 L 470.65234 531.05859 L 470.65234 532.13477 L 470.65234 533.32812 L 470.65234 534.52344 L 470.65234 535.59961 L 470.65234 536.79492 L 470.65234 537.99023 L 470.65234 539.06641 L 470.65234 540.25586 L 470.65234 541.44922 L 470.65234 542.64453 L 470.65234 543.72266 L 470.65234 544.91797 L 469.46289 544.91797 L 468.26953 544.91797 L 467.08008 544.91797 L 465.89258 544.91797 L 464.70508 544.91797 L 463.50781 544.91797 L 462.31836 544.91797 L 461.13281 544.91797 L 459.94336 544.91797 L 458.62891 544.91797 L 457.44141 544.91797 L 456.25195 544.91797 L 455.06445 544.91797 L 453.86719 544.91797 L 452.67969 544.91797 L 451.49219 544.91797 L 450.30273 544.91797 L 449.10742 544.91797 L 447.91992 544.91797 L 446.73047 544.91797 L 445.54297 544.91797 L 444.35352 544.91797 L 443.16016 544.91797 L 441.9707 544.91797 L 440.7832 544.91797 L 439.59375 544.91797 L 438.39844 544.91797 L 437.21094 544.91797 L 436.02148 544.91797 L 434.71484 544.91797 L 433.51953 544.91797 L 432.33008 544.91797 L 431.14258 544.91797 L 429.95312 544.91797 L 428.75977 544.91797 L 427.57031 544.91797 L 426.38281 544.91797 L 425.19336 544.91797 L 423.99805 544.91797 L 422.81055 544.91797 L 421.62109 544.91797 L 420.43359 544.91797 L 419.23633 544.91797 L 418.05078 544.91797 L 416.86133 544.91797 L 415.67188 544.91797 L 414.47852 544.91797 L 413.28906 544.91797 L 411.98047 544.91797 L 410.79297 544.91797 L 409.60547 544.91797 L 408.4082 544.91797 L 407.2207 544.91797 L 406.03125 544.91797 L 404.84375 544.91797 L 403.65039 544.91797 L 402.46094 544.91797 L 401.27344 544.91797 L 401.27344 543.72266 L 401.27344 542.52539 L 401.27344 541.33203 L 401.27344 540.14258 L 401.27344 538.94531 L 401.27344 537.75195 L 401.27344 536.55664 L 401.27344 535.36133 L 401.27344 534.16602 L 401.27344 532.9707 L 401.27344 531.77539 L 401.27344 530.58008 L 401.27344 529.38281 L 401.27344 528.1875 L 401.27344 526.99219 L 401.27344 525.79688 L 401.27344 524.60352 L 401.27344 523.40625 L 401.27344 522.33203 L 401.27344 521.13477 L 401.27344 519.94141 L 401.27344 518.74609 L 401.27344 517.54883 L 401.27344 516.35352 L 401.27344 515.1582 L 401.27344 513.96289 L 401.27344 512.76758 L 401.27344 511.57227 L 401.27344 510.37695 L 401.27344 509.18359 L 401.27344 507.98633 L 401.27344 506.79102 L 401.27344 505.5957 L 401.27344 504.40039 L 401.27344 503.20508 L 401.27344 502.00977 L 401.27344 500.81445 L 401.27344 499.61914 L 401.27344 498.42383 L 401.27344 497.22852 L 401.27344 496.0332 L 401.27344 494.84375 L 401.27344 493.65039 L 401.27344 492.45312 L 401.27344 491.25781 L 401.27344 490.0625 L 401.27344 488.86914 L 401.27344 487.67188 L 401.27344 486.47852 L 401.27344 485.28125 L 401.27344 484.08594 L 401.27344 482.89062 L 401.27344 481.69531 L 401.27344 480.5 L 401.27344 479.42383 L 401.27344 478.23047 L 401.27344 477.0332 L 401.27344 475.83789 L 401.27344 474.64258 L 401.27344 473.44727 L 401.27344 472.25195 L 401.27344 471.05664 L 401.27344 469.86133 L 401.27344 468.66602 L 401.27344 467.4707 L 401.27344 466.27539 L 401.27344 465.08008 L 401.27344 463.88477 L 401.27344 462.68945 L 401.27344 461.49414 L 401.27344 460.29883 L 401.27344 459.10352 L 401.27344 457.90625 z M 234.91211 484.74023 L 234.44141 485.81641 L 234.08398 486.89844 L 233.60547 488.0957 L 233.12695 489.17773 L 232.77344 490.25195 L 232.29688 491.33008 L 231.81836 492.53125 L 231.34766 493.60742 L 230.98828 494.68359 L 230.50977 495.76562 L 230.03125 496.8418 L 229.67969 498.03711 L 229.20117 499.12109 L 228.72266 500.19531 L 228.36523 501.27148 L 227.89453 502.35352 L 227.41602 503.54883 L 226.9375 504.625 L 226.58789 505.70898 L 226.10938 506.78516 L 225.63086 507.98047 L 225.27148 509.0625 L 224.80078 510.13867 L 225.98828 510.13867 L 227.17578 510.13867 L 228.36523 510.13867 L 229.56055 510.13867 L 230.74805 510.13867 L 231.9375 510.13867 L 233.12695 510.13867 L 234.32227 510.13867 L 235.39062 510.13867 L 236.57812 510.13867 L 237.77344 510.13867 L 238.96289 510.13867 L 240.15039 510.13867 L 241.33984 510.13867 L 242.52734 510.13867 L 243.72266 510.13867 L 244.91016 510.13867 L 244.43359 509.0625 L 244.07422 507.98047 L 243.60352 506.78516 L 243.125 505.70898 L 242.76562 504.625 L 242.29492 503.54883 L 241.81836 502.35352 L 241.45703 501.27148 L 240.97852 500.19531 L 240.50977 499.12109 L 240.15039 498.03711 L 239.67188 496.8418 L 239.32031 495.76562 L 238.8418 494.68359 L 238.36328 493.60742 L 238.00586 492.53125 L 237.5332 491.33008 L 237.05664 490.25195 L 236.69727 489.17773 L 236.21875 488.0957 L 235.74805 486.89844 L 235.39062 485.81641 L 234.91211 484.74023 z "
     id="path24" /><g
     transform="matrix(1.3333333,0,0,-1.3333333,198.80492,648.08326)"
     id="g44"
     style="fill:#ffffff;fill-opacity:1"><path
       inkscape:connector-curvature="0"
       id="path46"
       style="fill:#ffffff;fill-opacity:1;fill-rule:evenodd;stroke:none"
       d="M 0,0 H 188.054 L 92.068,-31.654 Z" /></g></svg>